<svg xmlns="http://www.w3.org/2000/svg" xmlns:xlink="http://www.w3.org/1999/xlink" fill="none" version="1.1" width="29.041748046875" height="21.166778564453125" viewBox="0 0 29.041748046875 21.166778564453125"><g><g><path d="M10.9608,20.8951C10.9608,20.8951,10.9527,20.8916,10.9527,20.8916C10.9527,20.8916,10.927,20.8776,10.927,20.8776C10.7768,20.795,10.6279,20.7102,10.4802,20.6232C8.70428,19.568,7.04465,18.3284,5.52883,16.9249C2.84433,14.4201,0,10.7031,0,6.12508C0,2.70908,2.87467,0.0000827764,6.34433,0.0000827764C7.30888,-0.00464155,8.26208,0.208147,9.13304,0.622622C10.004,1.0371,10.7703,1.6426,11.375,2.39408C11.9798,1.64244,12.7463,1.03685,13.6175,0.622368C14.4887,0.207886,15.4421,-0.00481723,16.4068,0.0000827764C19.8753,0.0000827764,22.75,2.70908,22.75,6.12508C22.75,10.7042,19.9057,14.4212,17.2212,16.9237C15.7054,18.3272,14.0457,19.5669,12.2698,20.6221C12.1221,20.7094,11.9732,20.7946,11.823,20.8776C11.823,20.8776,11.7973,20.8916,11.7973,20.8916C11.7973,20.8916,11.7892,20.8962,11.7892,20.8962C11.7892,20.8962,11.7857,20.8974,11.7857,20.8974C11.6592,20.9644,11.5182,20.9995,11.375,20.9995C11.2318,20.9995,11.0908,20.9644,10.9643,20.8974C10.9643,20.8974,10.9608,20.8951,10.9608,20.8951Z" fill="#FFFFFF" fill-opacity="1"/></g><g><g><g><path d="M21.26833,18.9668220703125C21.26833,18.9668220703125,24.4583,12.733452070312499,24.4583,12.733452070312499C24.4583,12.733452070312499,22.25833,12.733452070312499,22.25833,12.733452070312499C22.25833,12.733452070312499,22.25833,8.7001220703125,22.25833,8.7001220703125C22.25833,8.7001220703125,18.95833,14.9334520703125,18.95833,14.9334520703125C18.95833,14.9334520703125,21.26833,14.9334520703125,21.26833,14.9334520703125C21.26833,14.9334520703125,21.26833,18.9668220703125,21.26833,18.9668220703125ZM21.70833,21.1668220703125C20.69389,21.1668220703125,19.740560000000002,20.9743220703125,18.84833,20.589322070312498C17.95611,20.2043220703125,17.18,19.6818220703125,16.52,19.0218220703125C15.86,18.3618220703125,15.3375,17.5857220703125,14.9525,16.6934220703125C14.5675,15.8012320703125,14.375,14.8479020703125,14.375,13.8334520703125C14.375,12.8190120703125,14.5675,11.8656820703125,14.9525,10.9734520703125C15.3375,10.081232070312499,15.86,9.3051220703125,16.52,8.6451220703125C17.18,7.9851220703125,17.95611,7.4626220703125,18.84833,7.0776220703125C19.740560000000002,6.6926220703125,20.69389,6.5001220703125,21.70833,6.5001220703125C22.72278,6.5001220703125,23.67611,6.6926220703125,24.5683,7.0776220703125C25.4606,7.4626220703125,26.2367,7.9851220703125,26.8967,8.6451220703125C27.5567,9.3051220703125,28.0792,10.081232070312499,28.464199999999998,10.9734520703125C28.8492,11.8656820703125,29.0417,12.8190120703125,29.0417,13.8334520703125C29.0417,14.8479020703125,28.8492,15.8012320703125,28.464199999999998,16.6934220703125C28.0792,17.5857220703125,27.5567,18.3618220703125,26.8967,19.0218220703125C26.2367,19.6818220703125,25.4606,20.2043220703125,24.5683,20.589322070312498C23.67611,20.9743220703125,22.72278,21.1668220703125,21.70833,21.1668220703125Z" fill="#894189" fill-opacity="1"/></g></g><g><g><path d="M21.64167,18.500048046875C21.64167,18.500048046875,24.54167,12.833418046875,24.54167,12.833418046875C24.54167,12.833418046875,22.54167,12.833418046875,22.54167,12.833418046875C22.54167,12.833418046875,22.54167,9.166748046875,22.54167,9.166748046875C22.54167,9.166748046875,19.54167,14.833418046875,19.54167,14.833418046875C19.54167,14.833418046875,21.64167,14.833418046875,21.64167,14.833418046875C21.64167,14.833418046875,21.64167,18.500048046875,21.64167,18.500048046875ZM22.04167,20.500048046875C21.11944,20.500048046875,20.25278,20.325048046875,19.441670000000002,19.975048046875C18.63056,19.625048046875,17.925,19.150048046875,17.325,18.550048046875C16.725,17.950048046875,16.25,17.244548046875,15.9,16.433418046874998C15.55,15.622308046875,15.375,14.755638046875,15.375,13.833418046875C15.375,12.911188046875,15.55,12.044528046875,15.9,11.233418046875C16.25,10.422308046875,16.725,9.716748046875,17.325,9.116748046875C17.925,8.516748046875,18.63056,8.041748046875,19.441670000000002,7.691748046875C20.25278,7.341748046875,21.11944,7.166748046875,22.04167,7.166748046875C22.96389,7.166748046875,23.83056,7.341748046875,24.641669999999998,7.691748046875C25.4528,8.041748046875,26.1583,8.516748046875,26.7583,9.116748046875C27.3583,9.716748046875,27.8333,10.422308046875,28.1833,11.233418046875C28.5333,12.044528046875,28.7083,12.911188046875,28.7083,13.833418046875C28.7083,14.755638046875,28.5333,15.622308046875,28.1833,16.433418046874998C27.8333,17.244548046875,27.3583,17.950048046875,26.7583,18.550048046875C26.1583,19.150048046875,25.4528,19.625048046875,24.641669999999998,19.975048046875C23.83056,20.325048046875,22.96389,20.500048046875,22.04167,20.500048046875Z" fill="#FFFFFF" fill-opacity="1"/></g></g></g></g></svg>